<svg width="25" height="25" viewBox="0 0 25 25" fill="none" xmlns="http://www.w3.org/2000/svg">
<g clip-path="url(#clip0_37_868)">
<path d="M8 12C7.44772 12 7 12.4477 7 13C7 13.5523 7.44772 14 8 14L8 13L8 12ZM24.7071 13.7071C25.0976 13.3166 25.0976 12.6834 24.7071 12.2929L18.3431 5.92893C17.9526 5.53841 17.3195 5.53841 16.9289 5.92893C16.5384 6.31946 16.5384 6.95262 16.9289 7.34315L22.5858 13L16.9289 18.6569C16.5384 19.0474 16.5384 19.6805 16.9289 20.0711C17.3195 20.4616 17.9526 20.4616 18.3431 20.0711L24.7071 13.7071ZM8 13L8 14L24 14L24 13L24 12L8 12L8 13Z" fill="white"/>
<path d="M1 0.5H12C12.2761 0.5 12.5 0.723858 12.5 1V2C12.5 2.27614 12.2761 2.5 12 2.5H4C3.17157 2.5 2.5 3.17157 2.5 4V21C2.5 21.8284 3.17157 22.5 4 22.5H12C12.2761 22.5 12.5 22.7239 12.5 23V24C12.5 24.2761 12.2761 24.5 12 24.5H1C0.723858 24.5 0.5 24.2761 0.5 24V1C0.5 0.723858 0.723858 0.5 1 0.5Z" fill="white" stroke="white"/>
</g>
<defs>
<clipPath id="clip0_37_868">
<rect width="25" height="25" fill="white"/>
</clipPath>
</defs>
</svg>
