<svg width="28" height="28" viewBox="0 0 28 28" fill="none" xmlns="http://www.w3.org/2000/svg">
<path d="M22.601 6.82238V23.88C22.601 24.822 21.8372 25.5858 20.8952 25.5858H6.3962C5.45419 25.5858 4.69043 24.822 4.69043 23.88V3.41084C4.69043 2.46883 5.45419 1.70508 6.3962 1.70508H17.4837L22.601 6.82238Z" fill="#EEEDFF"/>
<path d="M6.3962 24.3059C6.1608 24.3059 5.96975 24.1144 5.96975 23.8795V1.76465C5.23542 1.95484 4.69043 2.61625 4.69043 3.41029V23.8795C4.69043 24.8215 5.45419 25.5852 6.3962 25.5852H20.8952C21.6892 25.5852 22.3507 25.0403 22.5408 24.3059H6.3962Z" fill="#D3D3FF"/>
<path d="M16.2046 1.70508V5.11661C16.2046 6.76267 17.544 8.1017 19.1897 8.1017H22.6012V6.82238L17.4839 1.70508H16.2046Z" fill="#D3D3FF"/>
<path d="M19.1892 6.82238H22.6007L17.4834 1.70508V5.11661C17.4834 6.05862 18.2472 6.82238 19.1892 6.82238Z" fill="#C8A9F1"/>
<path d="M15.3516 19.7197V23.8797L17.4838 22.6003L19.616 23.8797V19.7197H15.3516Z" fill="#C8A9F1"/>
<path d="M17.4838 21.7475C18.2518 21.7475 18.9755 21.5581 19.616 21.2298V19.7197H15.3516V21.2298C15.9921 21.5581 16.7157 21.7475 17.4838 21.7475Z" fill="#B18AE3"/>
<path d="M17.4838 20.4686C19.3679 20.4686 20.8953 18.9412 20.8953 17.057C20.8953 15.1729 19.3679 13.6455 17.4838 13.6455C15.5997 13.6455 14.0723 15.1729 14.0723 17.057C14.0723 18.9412 15.5997 20.4686 17.4838 20.4686Z" fill="#FBE29F"/>
<path d="M17.4838 14.9248C18.1077 14.9248 18.6258 14.4779 18.7388 13.8869C18.3499 13.7329 17.9273 13.6455 17.4838 13.6455C15.5998 13.6455 14.0723 15.173 14.0723 17.057C14.0723 18.9411 15.5998 20.4686 17.4838 20.4686C17.9273 20.4686 18.3499 20.3812 18.7388 20.2272C18.6258 19.6362 18.1077 19.1892 17.4838 19.1892C16.3081 19.1892 15.3516 18.2327 15.3516 17.057C15.3516 15.8813 16.3081 14.9248 17.4838 14.9248Z" fill="#FFCD71"/>
<path d="M13.2194 18.7634C13.2194 18.9988 13.0288 19.1898 12.793 19.1898H8.10213C7.86631 19.1898 7.67569 18.9988 7.67569 18.7634C7.67569 18.528 7.86631 18.337 8.10213 18.337H12.793C13.0288 18.337 13.2194 18.528 13.2194 18.7634ZM8.10213 12.3668H19.1896C19.4254 12.3668 19.6161 12.1757 19.6161 11.9403C19.6161 11.7049 19.4254 11.5139 19.1896 11.5139H8.10213C7.86631 11.5139 7.67569 11.7049 7.67569 11.9403C7.67569 12.1757 7.86631 12.3668 8.10213 12.3668ZM8.10213 8.95524H19.1896C19.4254 8.95524 19.6161 8.7642 19.6161 8.5288C19.6161 8.29341 19.4254 8.10236 19.1896 8.10236H8.10213C7.86631 8.10236 7.67569 8.29341 7.67569 8.5288C7.67569 8.7642 7.86631 8.95524 8.10213 8.95524ZM8.10213 5.54371H15.7781C16.0139 5.54371 16.2045 5.35267 16.2045 5.11727C16.2045 4.88187 16.0139 4.69083 15.7781 4.69083H8.10213C7.86631 4.69083 7.67569 4.88187 7.67569 5.11727C7.67569 5.35267 7.86631 5.54371 8.10213 5.54371ZM23.0276 23.8807C23.0276 25.0564 22.0711 26.0129 20.8954 26.0129H6.39637C5.22067 26.0129 4.26416 25.0564 4.26416 23.8807V3.4115C4.26416 2.23581 5.22067 1.2793 6.39637 1.2793H17.4838C17.5939 1.29166 17.7047 1.32279 17.7858 1.40467L22.9022 6.52112C22.9747 6.59574 23.0148 6.69425 23.022 6.79702C23.0374 6.8192 23.0225 23.8547 23.0276 23.8807ZM17.9103 5.11727C17.9103 5.8226 18.4843 6.3966 19.1896 6.3966H21.5717L17.9103 2.73517V5.11727ZM22.1747 23.8807V7.24948H19.1896C18.0139 7.24948 17.0574 6.29297 17.0574 5.11727V2.13218H6.39637C5.69103 2.13218 5.11704 2.70617 5.11704 3.4115V23.8807C5.11704 24.586 5.69103 25.16 6.39637 25.16H20.8954C21.6007 25.16 22.1747 24.586 22.1747 23.8807ZM12.793 14.9254H8.10213C7.86631 14.9254 7.67569 15.1165 7.67569 15.3519C7.67569 15.5873 7.86631 15.7783 8.10213 15.7783H12.793C13.0288 15.7783 13.2194 15.5873 13.2194 15.3519C13.2194 15.1165 13.0288 14.9254 12.793 14.9254ZM19.1551 18.1689C19.3726 18.6815 18.5947 19.0171 18.3713 18.505L18.1167 17.9105H16.8514L16.5968 18.505C16.3717 19.0193 15.5964 18.679 15.813 18.1689L17.0924 15.1838C17.1743 15.0265 17.3073 14.9378 17.4847 14.9259C17.6578 14.9344 17.7977 15.0308 17.8762 15.1838L19.1551 18.1689ZM17.7508 17.0576L17.4838 16.4342L17.2169 17.0576H17.7508ZM21.3218 17.0576C21.3218 18.1903 20.8254 19.2069 20.0425 19.9101V23.8807C20.0425 24.0342 19.9602 24.1762 19.8263 24.2517C19.761 24.2888 19.6885 24.3071 19.6161 24.3071C19.5401 24.3071 19.4642 24.2871 19.3964 24.2462L17.4838 23.0986L15.5713 24.2462C15.4391 24.3255 15.2753 24.3272 15.1414 24.2517C15.0075 24.1762 14.9252 24.0342 14.9252 23.8807V19.9101C14.1423 19.2069 13.6459 18.1903 13.6459 17.0576C13.6459 14.9416 15.3674 13.2197 17.4838 13.2197C19.6003 13.2197 21.3218 14.9416 21.3218 17.0576ZM19.1896 20.4905C18.6749 20.7476 18.0971 20.8956 17.4838 20.8956C16.8706 20.8956 16.2928 20.7476 15.7781 20.4905V23.1276L17.2642 22.2359C17.399 22.1549 17.5683 22.1549 17.703 22.2359L19.1896 23.1276V20.4905ZM20.4689 17.0576C20.4689 15.4116 19.1295 14.0725 17.4838 14.0725C15.8382 14.0725 14.4988 15.4116 14.4988 17.0576C14.4988 18.7037 15.8382 20.0427 17.4838 20.0427C19.1295 20.0427 20.4689 18.7037 20.4689 17.0576Z" fill="black"/>
</svg>
