<svg width="28" height="28" viewBox="0 0 28 28" fill="none" xmlns="http://www.w3.org/2000/svg">
<g clip-path="url(#clip0_74_642)">
<path d="M14.5259 2.39967V3.54573L14.9257 4.05213H16.205C16.4405 4.05213 16.6314 3.86119 16.6314 3.62569V2.34636C16.6314 2.11086 16.4405 1.91992 16.205 1.91992H14.9257L14.5259 2.39967Z" fill="#FF8086"/>
<path d="M13.646 1.91992H14.9253V4.05213H13.646V1.91992Z" fill="#E5646E"/>
<path d="M14.0726 6.61046H13.2197V1.91961C13.2197 1.6841 13.4107 1.49316 13.6462 1.49316C13.8817 1.49316 14.0726 1.6841 14.0726 1.91961V6.61046Z" fill="#FFC269"/>
<path d="M24.8826 9.5957H2.40902C2.24047 9.5957 2.08781 9.69496 2.01936 9.84896L0.805176 12.5808L1.89202 12.9273H25.5062L26.4864 12.5808L25.2723 9.84896C25.2038 9.69496 25.0511 9.5957 24.8826 9.5957Z" fill="#FF8086"/>
<path d="M26.5989 12.8343L26.4863 12.5811H0.805052L0.692525 12.8343C0.567151 13.1163 0.773602 13.4339 1.08219 13.4339H1.27888L1.55873 13.8337H25.6749L26.0125 13.4339H26.2092C26.5178 13.4339 26.7242 13.1163 26.5989 12.8343Z" fill="#E5646E"/>
<path d="M26.0127 25.3743H1.79443V13.8603H6.82287L13.6459 7.65918L20.4691 13.8603L26.0127 14.2868V25.3743Z" fill="#FFC269"/>
<path d="M11.0874 20.2565V24.5209H16.2047V20.2565C16.2047 20.021 16.0138 19.8301 15.7783 19.8301H14.0725L13.6638 20.2921L13.2196 19.8301H11.5138C11.2783 19.8301 11.0874 20.021 11.0874 20.2565Z" fill="#C38C66"/>
<path d="M13.2197 19.8301H14.0726V24.0945H13.2197V19.8301Z" fill="#B57F5F"/>
<path d="M13.6461 16.8458C15.0592 16.8458 16.2047 15.7003 16.2047 14.2872C16.2047 12.8741 15.0592 11.7285 13.6461 11.7285C12.2329 11.7285 11.0874 12.8741 11.0874 14.2872C11.0874 15.7003 12.2329 16.8458 13.6461 16.8458Z" fill="#FFF0AF"/>
<path d="M13.6462 15.9926C14.5883 15.9926 15.352 15.2289 15.352 14.2868C15.352 13.3448 14.5883 12.5811 13.6462 12.5811C12.7041 12.5811 11.9404 13.3448 11.9404 14.2868C11.9404 15.2289 12.7041 15.9926 13.6462 15.9926Z" fill="white"/>
<path d="M14.8805 13.6691C14.7747 13.4584 14.519 13.3738 14.3083 13.4784L13.4554 13.9048L13.2197 14.2863V15.1391C13.2197 15.3749 13.4105 15.5656 13.6462 15.5656C13.8819 15.5656 14.0726 15.3749 14.0726 15.1391V14.5499L14.6898 14.2413C14.9005 14.1359 14.9859 13.8798 14.8805 13.6691Z" fill="#857E87"/>
<path d="M10.2344 24.0954V25.3747H17.0574V24.0954C17.0574 23.8599 16.8665 23.6689 16.631 23.6689H10.6608C10.4253 23.6689 10.2344 23.8599 10.2344 24.0954Z" fill="#C8C5C9"/>
<path d="M20.4692 13.4334L13.6461 6.61035L6.82304 13.4334H1.2793V25.3738H2.13218V15.1392C2.13218 14.6681 2.514 14.2863 2.98506 14.2863H7.2491C7.5885 14.2863 7.91398 14.1515 8.15396 13.9115L13.6461 8.41958L19.1382 13.9115C19.3782 14.1514 19.7036 14.2862 20.043 14.2862H26.0129V13.4334H20.4692V13.4334Z" fill="#FFA95F"/>
<path d="M20.4691 13.8606C20.36 13.8606 20.2509 13.8189 20.1676 13.7356L13.646 7.21409L7.12446 13.7356C6.95788 13.9022 6.688 13.9022 6.52142 13.7356C6.35484 13.569 6.35484 13.2991 6.52142 13.1326L13.3445 6.3095C13.5111 6.14293 13.7809 6.14293 13.9475 6.3095L20.7706 13.1326C20.9372 13.2991 20.9372 13.569 20.7706 13.7356C20.6873 13.8189 20.5782 13.8606 20.4691 13.8606Z" fill="#DB4655"/>
<path d="M26.8658 25.8001H0.426442C0.190726 25.8001 0 25.6094 0 25.3737C0 25.138 0.190726 24.9473 0.426442 24.9473H26.8658C27.1015 24.9473 27.2923 25.138 27.2923 25.3737C27.2923 25.6094 27.1015 25.8001 26.8658 25.8001Z" fill="#DAD8DB"/>
<path d="M3.83757 21.9623H8.52843C8.76393 21.9623 8.95487 21.7713 8.95487 21.5358V20.2565C8.95487 20.021 8.76393 19.8301 8.52843 19.8301H6.39622L5.95198 20.1322L5.54334 19.8301H3.83757C3.60207 19.8301 3.41113 20.021 3.41113 20.2565V21.5358C3.41113 21.7713 3.60207 21.9623 3.83757 21.9623Z" fill="#EDF4FF"/>
<path d="M3.83775 20.683V19.8301H3.4113C3.1758 19.8301 2.98486 20.021 2.98486 20.2565V21.9623C2.98486 22.1978 3.1758 22.3887 3.4113 22.3887H5.54351L5.96995 22.1422L6.3964 22.3887H8.5286C8.76411 22.3887 8.95504 22.1978 8.95504 21.9623V21.5358H4.69063C4.21957 21.5358 3.83775 21.154 3.83775 20.683Z" fill="#DBEAFF"/>
<path d="M5.94991 21.789L5.54346 21.5358V19.8301H6.39634V21.5358L5.94991 21.789Z" fill="#FFE09F"/>
<path d="M5.54346 21.5361H6.39634V22.389H5.54346V21.5361Z" fill="#FFC269"/>
<path d="M13.6462 14.7132C13.8817 14.7132 14.0726 14.5223 14.0726 14.2868C14.0726 14.0513 13.8817 13.8604 13.6462 13.8604C13.4107 13.8604 13.2197 14.0513 13.2197 14.2868C13.2197 14.5223 13.4107 14.7132 13.6462 14.7132Z" fill="#4B3F4E"/>
<path d="M3.83757 17.6976H8.52843C8.76393 17.6976 8.95487 17.5067 8.95487 17.2712V15.9919C8.95487 15.7564 8.76393 15.5654 8.52843 15.5654H6.39622L5.95198 15.8675L5.54334 15.5654H3.83757C3.60207 15.5654 3.41113 15.7564 3.41113 15.9919V17.2712C3.41113 17.5067 3.60207 17.6976 3.83757 17.6976Z" fill="#EDF4FF"/>
<path d="M3.83775 16.4183V15.5654H3.4113C3.1758 15.5654 2.98486 15.7564 2.98486 15.9919V17.6976C2.98486 17.9331 3.1758 18.1241 3.4113 18.1241H5.54351L5.96995 17.8775L6.3964 18.1241H8.5286C8.76411 18.1241 8.95504 17.9331 8.95504 17.6976V17.2712H4.69063C4.21957 17.2712 3.83775 16.8894 3.83775 16.4183Z" fill="#DBEAFF"/>
<path d="M5.94991 17.5244L5.54346 17.2712V15.5654H6.39634V17.2712L5.94991 17.5244Z" fill="#FFE09F"/>
<path d="M5.54346 17.2715H6.39634V18.1244H5.54346V17.2715Z" fill="#FFC269"/>
<path d="M19.1896 21.9623H23.8805C24.116 21.9623 24.3069 21.7713 24.3069 21.5358V20.2565C24.3069 20.021 24.116 19.8301 23.8805 19.8301H21.7483L21.304 20.1322L20.8954 19.8301H19.1896C18.9541 19.8301 18.7632 20.021 18.7632 20.2565V21.5358C18.7632 21.7713 18.9541 21.9623 19.1896 21.9623Z" fill="#EDF4FF"/>
<path d="M19.1898 20.683V19.8301H18.7634C18.5279 19.8301 18.3369 20.021 18.3369 20.2565V21.9623C18.3369 22.1978 18.5279 22.3887 18.7634 22.3887H20.8956L21.322 22.1422L21.7484 22.3887H23.8807C24.1162 22.3887 24.3071 22.1978 24.3071 21.9623V21.5358H20.0427C19.5716 21.5358 19.1898 21.154 19.1898 20.683Z" fill="#DBEAFF"/>
<path d="M21.302 21.789L20.8955 21.5358V19.8301H21.7484V21.5358L21.302 21.789Z" fill="#FFE09F"/>
<path d="M20.8955 21.5361H21.7484V22.389H20.8955V21.5361Z" fill="#FFC269"/>
<path d="M19.1896 17.6976H23.8805C24.116 17.6976 24.3069 17.5067 24.3069 17.2712V15.9919C24.3069 15.7564 24.116 15.5654 23.8805 15.5654H21.7483L21.304 15.8675L20.8954 15.5654H19.1896C18.9541 15.5654 18.7632 15.7564 18.7632 15.9919V17.2712C18.7632 17.5067 18.9541 17.6976 19.1896 17.6976Z" fill="#EDF4FF"/>
<path d="M19.1898 16.4183V15.5654H18.7634C18.5279 15.5654 18.3369 15.7564 18.3369 15.9919V17.6976C18.3369 17.9331 18.5279 18.1241 18.7634 18.1241H20.8956L21.322 17.8775L21.7484 18.1241H23.8807C24.1162 18.1241 24.3071 17.9331 24.3071 17.6976V17.2712H20.0427C19.5716 17.2712 19.1898 16.8894 19.1898 16.4183Z" fill="#DBEAFF"/>
<path d="M21.302 17.5244L20.8955 17.2712V15.5654H21.7484V17.2712L21.302 17.5244Z" fill="#FFE09F"/>
<path d="M20.8955 17.2715H21.7484V18.1244H20.8955V17.2715Z" fill="#FFC269"/>
</g>
<defs>
<clipPath id="clip0_74_642">
<rect width="27.2923" height="27.2923" fill="white"/>
</clipPath>
</defs>
</svg>
