<svg width="28" height="28" viewBox="0 0 28 28" fill="none" xmlns="http://www.w3.org/2000/svg">
<g clip-path="url(#clip0_74_592)">
<path d="M17.9641 26.2837V3.25328C17.9641 2.69645 17.5127 2.24512 16.9559 2.24512H2.87584C2.31901 2.24512 1.86768 2.69651 1.86768 3.25328V26.2837C1.86768 26.8406 2.31906 27.2919 2.87584 27.2919H16.9559C17.5127 27.2919 17.9641 26.8405 17.9641 26.2837Z" fill="#FFC250"/>
<path d="M20.2614 2.24512H16.8872C17.444 2.24512 17.8954 2.69651 17.8954 3.25328V26.2837C17.8954 26.8406 17.444 27.2919 16.8872 27.2919H20.2614C20.8182 27.2919 21.2696 26.8405 21.2696 26.2837V3.25333C21.2696 2.69651 20.8182 2.24512 20.2614 2.24512Z" fill="#EAB14D"/>
<path d="M3.51562 25.2843V4.2539C3.51562 4.05486 3.67698 3.89355 3.87597 3.89355H19.2616C19.4606 3.89355 19.6219 4.05491 19.6219 4.2539V25.2843C19.6219 25.4833 19.4605 25.6446 19.2616 25.6446H3.87597C3.67693 25.6446 3.51562 25.4833 3.51562 25.2843Z" fill="#F5F5F5"/>
<path d="M19.2614 3.89355H15.8872C16.0862 3.89355 16.2476 4.05491 16.2476 4.2539V25.2843C16.2476 25.4833 16.0862 25.6446 15.8872 25.6446H19.2614C19.4604 25.6446 19.6217 25.4833 19.6217 25.2843V4.2539C19.6217 4.05491 19.4604 3.89355 19.2614 3.89355Z" fill="#EAEAEA"/>
<path d="M13.7104 1.2547V0.723938C13.7104 0.324149 13.3863 0 12.9865 0H10.1508C9.75095 0 9.42686 0.324149 9.42686 0.723938V1.2547C9.42686 1.41818 9.29429 1.55075 9.1308 1.55075H7.95062C7.55803 1.55075 7.23975 1.86904 7.23975 2.26163V3.89331H15.8975V2.26163C15.8975 1.86904 15.5792 1.55075 15.1866 1.55075H14.0065C13.843 1.55075 13.7104 1.41818 13.7104 1.2547Z" fill="#C2D0DA"/>
<path d="M5.6123 9.742V6.56832C5.6123 6.21672 5.89738 5.93164 6.24898 5.93164H9.42267C9.77427 5.93164 10.0593 6.21672 10.0593 6.56832V9.742C10.0593 10.0936 9.77427 10.3787 9.42267 10.3787H6.24898C5.89733 10.3787 5.6123 10.0936 5.6123 9.742Z" fill="#66B49D"/>
<path d="M5.6123 16.3543V13.1806C5.6123 12.829 5.89738 12.5439 6.24898 12.5439H9.42267C9.77427 12.5439 10.0593 12.829 10.0593 13.1806V16.3543C10.0593 16.7059 9.77427 16.991 9.42267 16.991H6.24898C5.89733 16.991 5.6123 16.7059 5.6123 16.3543Z" fill="#66B49D"/>
<path d="M5.6123 22.9666V19.7929C5.6123 19.4413 5.89738 19.1562 6.24898 19.1562H9.42267C9.77427 19.1562 10.0593 19.4413 10.0593 19.7929V22.9666C10.0593 23.3182 9.77427 23.6033 9.42267 23.6033H6.24898C5.89733 23.6033 5.6123 23.3183 5.6123 22.9666Z" fill="#66B49D"/>
<path d="M7.56705 9.29275C7.56657 9.29275 7.56614 9.29275 7.56566 9.29275C7.38384 9.29233 7.2114 9.20427 7.10431 9.0573L6.62339 8.39685C6.48948 8.21295 6.52999 7.95533 6.7139 7.82142C6.8978 7.68757 7.15542 7.72809 7.28927 7.91194L7.56811 8.29493L8.38342 7.18725C8.51828 7.00404 8.77606 6.96492 8.95922 7.09972C9.14243 7.23453 9.18161 7.49237 9.04675 7.67558L8.02798 9.05965C7.92057 9.20565 7.74829 9.29275 7.56705 9.29275Z" fill="#F6F9F9"/>
<path d="M7.56699 16.0476C7.56646 16.0476 7.56598 16.0476 7.5655 16.0476C7.38368 16.0471 7.21124 15.9591 7.1042 15.8121L6.62339 15.1517C6.48948 14.9678 6.52999 14.7102 6.7139 14.5763C6.8978 14.4424 7.15542 14.483 7.28927 14.6668L7.56811 15.0498L8.38342 13.9421C8.51828 13.759 8.77606 13.7198 8.95922 13.8546C9.14243 13.9894 9.18161 14.2472 9.04675 14.4304L8.02798 15.8145C7.92057 15.9606 7.74828 16.0476 7.56699 16.0476Z" fill="#F6F9F9"/>
<path d="M7.56697 22.5164C7.5665 22.5164 7.56602 22.5164 7.56559 22.5163C7.38382 22.5159 7.21132 22.4279 7.10429 22.281L6.62337 21.6204C6.48946 21.4365 6.53003 21.1789 6.71393 21.045C6.89794 20.9111 7.15546 20.9518 7.28931 21.1356L7.56809 21.5186L8.38345 20.4109C8.51831 20.2277 8.7761 20.1885 8.95925 20.3233C9.14246 20.4582 9.18164 20.716 9.04678 20.8992L8.02801 22.2833C7.9205 22.4293 7.74827 22.5164 7.56697 22.5164Z" fill="#F6F9F9"/>
<path d="M17.2005 7.70844H12.1091C11.8816 7.70844 11.6973 7.52405 11.6973 7.2966C11.6973 7.06915 11.8816 6.88477 12.1091 6.88477H17.2005C17.428 6.88477 17.6124 7.06915 17.6124 7.2966C17.6124 7.52405 17.428 7.70844 17.2005 7.70844Z" fill="#DDEAFB"/>
<path d="M14.6548 9.43012H12.1091C11.8816 9.43012 11.6973 9.24573 11.6973 9.01828C11.6973 8.79083 11.8816 8.60645 12.1091 8.60645H14.6548C14.8823 8.60645 15.0666 8.79083 15.0666 9.01828C15.0666 9.24573 14.8823 9.43012 14.6548 9.43012Z" fill="#DDEAFB"/>
<path d="M15.5257 14.3188H12.1096C11.8821 14.3188 11.6978 14.1344 11.6978 13.907C11.6978 13.6795 11.8821 13.4951 12.1096 13.4951H15.5257C15.7532 13.4951 15.9375 13.6795 15.9375 13.907C15.9375 14.1344 15.7532 14.3188 15.5257 14.3188Z" fill="#DDEAFB"/>
<path d="M14.6553 16.0405H12.1096C11.8821 16.0405 11.6978 15.8561 11.6978 15.6286C11.6978 15.4012 11.8821 15.2168 12.1096 15.2168H14.6553C14.8827 15.2168 15.0671 15.4012 15.0671 15.6286C15.0671 15.8561 14.8827 16.0405 14.6553 16.0405Z" fill="#DDEAFB"/>
<path d="M23.8226 10.7534L23.4182 10.2207L21.9052 9.26253L21.3235 9.1709L13.5759 21.4137C13.389 21.7089 13.2518 22.0328 13.1699 22.3725C14.1126 22.3841 14.9682 22.9259 15.3818 23.7731C15.6538 23.5539 15.888 23.2914 16.0749 22.9962L23.8226 10.7534Z" fill="#FC8086"/>
<path d="M24.9162 6.98302L24.2624 6.569C23.7527 6.24623 23.0779 6.39789 22.7553 6.90764L22.1558 7.85504L22.347 8.24059L24.1663 9.39268L24.6549 9.43756L25.2548 8.48958C25.5772 7.98009 25.4256 7.30562 24.9162 6.98302Z" fill="#8C9BA6"/>
<path d="M21.3247 9.16699L22.1576 7.85151L24.6571 9.43405L23.8242 10.7495L21.3247 9.16699Z" fill="#C9E2E7"/>
<path d="M15.3819 23.7727L13.1759 25.5504C12.8647 25.8012 12.4125 25.5149 12.5062 25.1264L13.17 22.3721C14.1127 22.3837 14.9683 22.9255 15.3819 23.7727Z" fill="#7C8B96"/>
<path d="M14.8033 23.0099L22.9248 10.1848L22.2289 9.74414L14.1074 22.5693C14.3622 22.6766 14.5973 22.8255 14.8033 23.0099Z" fill="#FB636F"/>
</g>
<defs>
<clipPath id="clip0_74_592">
<rect width="27.2923" height="27.2923" fill="white"/>
</clipPath>
</defs>
</svg>
