<svg width="25" height="25" viewBox="0 0 25 25" fill="none" xmlns="http://www.w3.org/2000/svg">
<path d="M1.51977 6.17591H23.4806C24.3186 6.17591 25 5.49447 25 4.65649C25 3.81852 24.3186 3.13672 23.4806 3.13672H1.51977C0.681797 3.13672 0 3.81852 0 4.65649C0 5.49447 0.681797 6.17591 1.51977 6.17591Z" fill="#343A40"/>
<path d="M23.4806 10.9805H1.51977C0.681797 10.9805 0 11.6623 0 12.5002C0 13.3382 0.681797 14.0197 1.51977 14.0197H23.4806C24.3186 14.0197 25 13.3382 25 12.5002C25 11.6623 24.3186 10.9805 23.4806 10.9805Z" fill="#343A40"/>
<path d="M23.4806 18.8232H1.51977C0.681797 18.8232 0 19.5054 0 20.3434C0 21.1814 0.681797 21.8628 1.51977 21.8628H23.4806C24.3186 21.8628 25 21.1814 25 20.3434C25 19.5054 24.3186 18.8232 23.4806 18.8232Z" fill="#343A40"/>
</svg>
