<svg width="28" height="28" viewBox="0 0 28 28" fill="none" xmlns="http://www.w3.org/2000/svg">
<path d="M25.9273 21.6065C25.9273 21.9081 25.8085 22.1973 25.5971 22.4106C25.3857 22.6239 25.099 22.7437 24.8 22.7437H11.2726C10.9736 22.7437 10.6868 22.6239 10.4754 22.4106C10.264 22.1973 10.1453 21.9081 10.1453 21.6065C10.1453 19.7969 10.8579 18.0614 12.1263 16.7819C13.3948 15.5023 15.1151 14.7834 16.909 14.7834H19.1636C20.9574 14.7834 22.6778 15.5023 23.9463 16.7819C25.2147 18.0614 25.9273 19.7969 25.9273 21.6065ZM18.0363 4.54883C17.1445 4.54883 16.2727 4.81561 15.5311 5.31542C14.7896 5.81524 14.2117 6.52565 13.8704 7.35682C13.5291 8.18799 13.4398 9.10258 13.6138 9.98495C13.7878 10.8673 14.2172 11.6778 14.8478 12.314C15.4784 12.9501 16.2819 13.3833 17.1566 13.5588C18.0313 13.7344 18.9379 13.6443 19.7619 13.3C20.5858 12.9557 21.29 12.3727 21.7855 11.6247C22.281 10.8766 22.5454 9.99719 22.5454 9.09754C22.5454 7.89115 22.0704 6.73416 21.2247 5.88111C20.3791 5.02807 19.2322 4.54883 18.0363 4.54883ZM7.89069 4.54883C6.99886 4.54883 6.12706 4.81561 5.38553 5.31542C4.64401 5.81524 4.06606 6.52565 3.72477 7.35682C3.38348 8.18799 3.29419 9.10258 3.46817 9.98495C3.64216 10.8673 4.07162 11.6778 4.70223 12.314C5.33285 12.9501 6.1363 13.3833 7.01099 13.5588C7.88568 13.7344 8.79233 13.6443 9.61627 13.3C10.4402 12.9557 11.1444 12.3727 11.6399 11.6247C12.1354 10.8766 12.3998 9.99719 12.3998 9.09754C12.3998 7.89115 11.9248 6.73416 11.0791 5.88111C10.2335 5.02807 9.08659 4.54883 7.89069 4.54883ZM7.89069 21.6065C7.88901 20.412 8.1223 19.2291 8.57703 18.1262C9.03176 17.0233 9.69891 16.0224 10.5398 15.1814C9.85165 14.9193 9.12228 14.7845 8.38669 14.7834H7.39468C5.73329 14.7864 4.1408 15.4535 2.96602 16.6386C1.79124 17.8237 1.12993 19.4302 1.12695 21.1061V21.6065C1.12695 21.9081 1.24572 22.1973 1.45713 22.4106C1.66854 22.6239 1.95527 22.7437 2.25424 22.7437H8.0936C7.96236 22.379 7.89374 21.9944 7.89069 21.6065Z" fill="#20C997"/>
</svg>
