<svg width="28" height="28" viewBox="0 0 28 28" fill="none" xmlns="http://www.w3.org/2000/svg">
<path d="M22.1751 3.41113C22.6275 3.41113 23.0614 3.59085 23.3813 3.91074C23.7012 4.23063 23.8809 4.6645 23.8809 5.1169V16.7161L19.0523 24.7332H2.55879C2.1064 24.7332 1.67253 24.5535 1.35263 24.2336C1.03274 23.9137 0.853027 23.4798 0.853027 23.0274V5.1169C0.853027 4.6645 1.03274 4.23063 1.35263 3.91074C1.67253 3.59085 2.1064 3.41113 2.55879 3.41113H22.1751Z" fill="#CCCCCC"/>
<path d="M11.3783 23.4539H19.8218L23.8807 16.7161V5.1169C23.8807 4.6645 23.701 4.23063 23.3811 3.91074C23.0612 3.59085 22.6273 3.41113 22.1749 3.41113H2.55859V14.6342C2.55859 16.9733 3.48781 19.2167 5.14181 20.8707C6.79582 22.5247 9.03914 23.4539 11.3783 23.4539Z" fill="#E6E6E6"/>
<path d="M22.1751 3.41113H2.55879C2.1064 3.41113 1.67253 3.59085 1.35263 3.91074C1.03274 4.23063 0.853027 4.6645 0.853027 5.1169V8.52843H23.8809V5.1169C23.8809 4.6645 23.7012 4.23063 23.3813 3.91074C23.0614 3.59085 22.6275 3.41113 22.1751 3.41113Z" fill="#E73844"/>
<path d="M22.1749 3.41113H2.55859V8.52843H23.8807V5.1169C23.8807 4.6645 23.701 4.23063 23.3811 3.91074C23.0612 3.59085 22.6273 3.41113 22.1749 3.41113Z" fill="#FF4D55"/>
<path d="M11.0874 11.0869H13.6461V13.6456H11.0874V11.0869Z" fill="white"/>
<path d="M15.3516 11.0869H17.9102V13.6456H15.3516V11.0869Z" fill="white"/>
<path d="M19.6162 11.0869H22.1749V13.6456H19.6162V11.0869Z" fill="white"/>
<path d="M11.0874 15.3516H13.6461V17.9102H11.0874V15.3516Z" fill="white"/>
<path d="M15.3516 15.3516H17.9102V17.9102H15.3516V15.3516Z" fill="white"/>
<path d="M22.1749 16.2044V15.3516H19.6162V16.7166" fill="white"/>
<path d="M2.55859 15.3516H5.11724V17.9102H2.55859V15.3516Z" fill="white"/>
<path d="M6.82275 15.3516H9.3814V17.9102H6.82275V15.3516Z" fill="white"/>
<path d="M11.0874 19.6162H13.6461V22.1749H11.0874V19.6162Z" fill="white"/>
<path d="M17.2343 19.6162H15.3516V22.1749H17.2334" fill="white"/>
<path d="M2.55859 19.6162H5.11724V22.1749H2.55859V19.6162Z" fill="white"/>
<path d="M6.82275 19.6162H9.3814V22.1749H6.82275V19.6162Z" fill="white"/>
<path d="M4.69063 2.55796C4.69063 2.08693 4.30878 1.70508 3.83775 1.70508C3.36671 1.70508 2.98486 2.08693 2.98486 2.55796V5.11661C2.98486 5.58765 3.36671 5.96949 3.83775 5.96949C4.30878 5.96949 4.69063 5.58765 4.69063 5.11661V2.55796Z" fill="#F9CB5D"/>
<path d="M8.95528 2.55796C8.95528 2.08693 8.57343 1.70508 8.10239 1.70508C7.63136 1.70508 7.24951 2.08693 7.24951 2.55796V5.11661C7.24951 5.58765 7.63136 5.96949 8.10239 5.96949C8.57343 5.96949 8.95528 5.58765 8.95528 5.11661V2.55796Z" fill="#F9CB5D"/>
<path d="M13.2194 2.55796C13.2194 2.08693 12.8376 1.70508 12.3666 1.70508C11.8955 1.70508 11.5137 2.08693 11.5137 2.55796V5.11661C11.5137 5.58765 11.8955 5.96949 12.3666 5.96949C12.8376 5.96949 13.2194 5.58765 13.2194 5.11661V2.55796Z" fill="#F9CB5D"/>
<path d="M17.4841 2.55796C17.4841 2.08693 17.1022 1.70508 16.6312 1.70508C16.1602 1.70508 15.7783 2.08693 15.7783 2.55796V5.11661C15.7783 5.58765 16.1602 5.96949 16.6312 5.96949C17.1022 5.96949 17.4841 5.58765 17.4841 5.11661V2.55796Z" fill="#F9CB5D"/>
<path d="M21.7487 2.55796C21.7487 2.08693 21.3669 1.70508 20.8959 1.70508C20.4248 1.70508 20.043 2.08693 20.043 2.55796V5.11661C20.043 5.58765 20.4248 5.96949 20.8959 5.96949C21.3669 5.96949 21.7487 5.58765 21.7487 5.11661V2.55796Z" fill="#F9CB5D"/>
<path d="M3.83789 1.70508V4.26373C3.83789 4.48993 3.92775 4.70686 4.08769 4.86681C4.24764 5.02675 4.46458 5.11661 4.69077 5.11661V2.55796C4.69077 2.33176 4.60092 2.11483 4.44097 1.95488C4.28102 1.79494 4.06409 1.70508 3.83789 1.70508Z" fill="#FFD98C"/>
<path d="M8.10254 1.70508V4.26373C8.10254 4.48993 8.1924 4.70686 8.35234 4.86681C8.51229 5.02675 8.72922 5.11661 8.95542 5.11661V2.55796C8.95542 2.33176 8.86557 2.11483 8.70562 1.95488C8.54567 1.79494 8.32874 1.70508 8.10254 1.70508Z" fill="#FFD98C"/>
<path d="M12.3667 1.70508V4.26373C12.3667 4.48993 12.4566 4.70686 12.6165 4.86681C12.7764 5.02675 12.9934 5.11661 13.2196 5.11661V2.55796C13.2196 2.33176 13.1297 2.11483 12.9698 1.95488C12.8098 1.79494 12.5929 1.70508 12.3667 1.70508Z" fill="#FFD98C"/>
<path d="M16.6313 1.70508V4.26373C16.6313 4.48993 16.7212 4.70686 16.8812 4.86681C17.0411 5.02675 17.258 5.11661 17.4842 5.11661V2.55796C17.4842 2.33176 17.3944 2.11483 17.2344 1.95488C17.0745 1.79494 16.8575 1.70508 16.6313 1.70508Z" fill="#FFD98C"/>
<path d="M20.8955 1.70508V4.26373C20.8955 4.48993 20.9854 4.70686 21.1453 4.86681C21.3053 5.02675 21.5222 5.11661 21.7484 5.11661V2.55796C21.7484 2.33176 21.6585 2.11483 21.4986 1.95488C21.3386 1.79494 21.1217 1.70508 20.8955 1.70508Z" fill="#FFD98C"/>
<path d="M21.7485 25.5858C24.3392 25.5858 26.4393 23.4856 26.4393 20.895C26.4393 18.3043 24.3392 16.2041 21.7485 16.2041C19.1578 16.2041 17.0576 18.3043 17.0576 20.895C17.0576 23.4856 19.1578 25.5858 21.7485 25.5858Z" fill="#8DBF00"/>
<path d="M21.7485 16.2041C20.7131 16.2038 19.7071 16.548 18.8888 17.1824C18.192 18.084 17.8476 19.2086 17.9202 20.3458C17.9927 21.483 18.4772 22.5548 19.2829 23.3605C20.0887 24.1663 21.1605 24.6508 22.2977 24.7233C23.4349 24.7959 24.5595 24.4515 25.4611 23.7547C25.9971 23.0613 26.3278 22.2315 26.4157 21.3596C26.5036 20.4876 26.3453 19.6085 25.9586 18.8221C25.5719 18.0356 24.9724 17.3734 24.2282 16.9106C23.484 16.4478 22.6249 16.2031 21.7485 16.2041Z" fill="#A8D600"/>
<path d="M18.3369 21.321L19.6162 20.0417L20.8956 21.321L23.8807 18.3359L25.16 19.6153L20.8956 23.8797L18.3369 21.321Z" fill="white"/>
</svg>
