<svg width="28" height="28" viewBox="0 0 28 28" fill="none" xmlns="http://www.w3.org/2000/svg">
<g clip-path="url(#clip0_74_565)">
<path fill-rule="evenodd" clip-rule="evenodd" d="M0 7.43401V4.07573C0 3.81858 0.207254 3.61133 0.464402 3.61133H26.8279C27.085 3.61133 27.2923 3.81858 27.2923 4.07573V7.43401H0Z" fill="#5C9CEE"/>
<path fill-rule="evenodd" clip-rule="evenodd" d="M26.8279 24.6936H0.464402C0.207254 24.6936 0 24.4864 0 24.2331V7.3457H27.2923V24.2331C27.2923 24.4864 27.085 24.6936 26.8279 24.6936Z" fill="#DDEDFC"/>
<path fill-rule="evenodd" clip-rule="evenodd" d="M21.535 9.80192H5.75688C5.49973 9.80192 5.29248 9.59467 5.29248 9.34136C5.29248 9.08421 5.49973 8.87695 5.75688 8.87695H21.535C21.7922 8.87695 21.9994 9.08421 21.9994 9.34136C21.9994 9.59467 21.7922 9.80192 21.535 9.80192Z" fill="#3B566A"/>
<path fill-rule="evenodd" clip-rule="evenodd" d="M8.60092 13.5212H2.49077C2.23362 13.5212 2.02637 13.3139 2.02637 13.0567V11.1646C2.02637 10.9074 2.23362 10.7002 2.49077 10.7002H8.60092C8.85807 10.7002 9.06532 10.9074 9.06532 11.1646V13.0567C9.06532 13.3139 8.85807 13.5212 8.60092 13.5212Z" fill="#3B566A"/>
<path fill-rule="evenodd" clip-rule="evenodd" d="M16.7029 13.5212H10.5889C10.3318 13.5212 10.1245 13.3139 10.1245 13.0567V11.1646C10.1245 10.9074 10.3318 10.7002 10.5889 10.7002H16.7029C16.96 10.7002 17.1673 10.9074 17.1673 11.1646V13.0567C17.1673 13.3139 16.96 13.5212 16.7029 13.5212Z" fill="#3B566A"/>
<path fill-rule="evenodd" clip-rule="evenodd" d="M24.805 13.5212H18.691C18.4338 13.5212 18.2266 13.3139 18.2266 13.0567V11.1646C18.2266 10.9074 18.4338 10.7002 18.691 10.7002H24.805C25.0583 10.7002 25.2655 10.9074 25.2655 11.1646V13.0567C25.2655 13.3139 25.0583 13.5212 24.805 13.5212Z" fill="#3B566A"/>
<path fill-rule="evenodd" clip-rule="evenodd" d="M15.5592 23.1624H12.957C12.6999 23.1624 12.4888 22.9551 12.4888 22.698V18.7525C12.4888 18.4953 12.6999 18.2881 12.957 18.2881H15.5592C15.8163 18.2881 16.0274 18.4953 16.0274 18.7525V22.698C16.0274 22.9551 15.8163 23.1624 15.5592 23.1624Z" fill="#EF5350"/>
<path fill-rule="evenodd" clip-rule="evenodd" d="M20.1188 23.1625H17.5127C17.2556 23.1625 17.0483 22.9552 17.0483 22.6981V17.2749C17.0483 17.0178 17.2556 16.8105 17.5127 16.8105H20.1188C20.3759 16.8105 20.5832 17.0178 20.5832 17.2749V22.6981C20.5832 22.9552 20.3759 23.1625 20.1188 23.1625Z" fill="#FFC107"/>
<path fill-rule="evenodd" clip-rule="evenodd" d="M24.6783 23.1626H22.0723C21.8152 23.1626 21.6079 22.9553 21.6079 22.6982V15.9048C21.6079 15.6477 21.8152 15.4404 22.0723 15.4404H24.6783C24.9355 15.4404 25.1427 15.6477 25.1427 15.9048V22.6982C25.1427 22.9553 24.9355 23.1626 24.6783 23.1626Z" fill="#5C9CEE"/>
<path fill-rule="evenodd" clip-rule="evenodd" d="M24.6784 23.1621H12.957C12.6999 23.1621 12.4888 22.9549 12.4888 22.6977C12.4888 22.4406 12.6999 22.2295 12.957 22.2295H24.6784C24.9355 22.2295 25.1428 22.4406 25.1428 22.6977C25.1428 22.9549 24.9355 23.1621 24.6784 23.1621Z" fill="#3B566A"/>
<path fill-rule="evenodd" clip-rule="evenodd" d="M6.31319 23.1625C4.01805 23.1625 2.14893 21.2972 2.14893 18.9983C2.14893 16.7031 4.01805 14.834 6.31319 14.834C8.60834 14.834 10.4775 16.7031 10.4775 18.9983C10.4775 21.2972 8.60834 23.1625 6.31319 23.1625Z" fill="#4FBA6F"/>
<path fill-rule="evenodd" clip-rule="evenodd" d="M6.31361 21.4085C4.98565 21.4085 3.90332 20.33 3.90332 18.9982C3.90332 17.6702 4.98565 16.5879 6.31361 16.5879C7.64157 16.5879 8.72389 17.6702 8.72389 18.9982C8.72389 20.33 7.64157 21.4085 6.31361 21.4085Z" fill="white"/>
<path fill-rule="evenodd" clip-rule="evenodd" d="M9.25725 21.942C10.0095 21.1898 10.4777 20.1458 10.4777 18.9983C10.4777 16.7031 8.60862 14.834 6.31348 14.834V16.588C7.64144 16.588 8.72376 17.6703 8.72376 18.9983C8.72376 19.6622 8.4551 20.2686 8.01756 20.7023L9.25725 21.942Z" fill="#FFC107"/>
<path fill-rule="evenodd" clip-rule="evenodd" d="M9.25696 21.9418L8.01728 20.7021C7.57974 21.1397 6.97717 21.4083 6.31319 21.4083C4.98523 21.4083 3.90291 20.3298 3.90291 18.998H2.14893C2.14893 21.297 4.01805 23.1623 6.31319 23.1623C7.46076 23.1623 8.50087 22.6979 9.25696 21.9418Z" fill="#EF5350"/>
<path fill-rule="evenodd" clip-rule="evenodd" d="M3.6189 6.30518H2.38306C1.9532 6.30518 1.6001 5.95591 1.6001 5.52222C1.6001 5.08852 1.9532 4.73926 2.38306 4.73926H3.6189C4.0526 4.73926 4.40186 5.08852 4.40186 5.52222C4.40186 5.95591 4.0526 6.30518 3.6189 6.30518ZM6.72387 6.30518H5.48803C5.05433 6.30518 4.70507 5.95591 4.70507 5.52222C4.70507 5.08852 5.05433 4.73926 5.48803 4.73926H6.72387C7.15373 4.73926 7.50683 5.08852 7.50683 5.52222C7.50683 5.95591 7.15373 6.30518 6.72387 6.30518ZM9.825 6.30518H8.58916C8.1593 6.30518 7.8062 5.95591 7.8062 5.52222C7.8062 5.08852 8.1593 4.73926 8.58916 4.73926H9.825C10.2587 4.73926 10.608 5.08852 10.608 5.52222C10.608 5.95591 10.2587 6.30518 9.825 6.30518Z" fill="#3D669D"/>
<path fill-rule="evenodd" clip-rule="evenodd" d="M3.61877 5.98642H2.38293C2.12962 5.98642 1.92236 5.77917 1.92236 5.52202C1.92236 5.26487 2.12962 5.05762 2.38293 5.05762H3.61877C3.87592 5.05762 4.08318 5.26487 4.08318 5.52202C4.08318 5.77917 3.87592 5.98642 3.61877 5.98642Z" fill="#FFC107"/>
<path fill-rule="evenodd" clip-rule="evenodd" d="M6.72369 5.98642H5.48784C5.23069 5.98642 5.02344 5.77917 5.02344 5.52202C5.02344 5.26487 5.23069 5.05762 5.48784 5.05762H6.72369C6.977 5.05762 7.18425 5.26487 7.18425 5.52202C7.18425 5.77917 6.977 5.98642 6.72369 5.98642Z" fill="#EF5350"/>
<path fill-rule="evenodd" clip-rule="evenodd" d="M9.82483 5.98642H8.58898C8.33567 5.98642 8.12842 5.77917 8.12842 5.52202C8.12842 5.26487 8.33567 5.05762 8.58898 5.05762H9.82483C10.082 5.05762 10.2892 5.26487 10.2892 5.52202C10.2892 5.77917 10.082 5.98642 9.82483 5.98642Z" fill="#4FBA6F"/>
</g>
<defs>
<clipPath id="clip0_74_565">
<rect width="27.2923" height="27.2923" fill="white"/>
</clipPath>
</defs>
</svg>
