<svg width="37" height="37" viewBox="0 0 37 37" fill="none" xmlns="http://www.w3.org/2000/svg">
<g clip-path="url(#clip0_95_560)">
<path d="M24.2211 27.4141H12.0367C11.2514 27.4141 10.6147 28.0507 10.6147 28.836C10.6147 32.9792 13.9857 36.3501 18.129 36.3501C22.2722 36.3501 25.643 32.9792 25.643 28.836C25.643 28.0507 25.0063 27.4141 24.2211 27.4141Z" fill="#FF9F00"/>
<path d="M24.2211 27.4141H18.1289V36.3501H18.1291C22.2722 36.3501 25.643 32.9792 25.643 28.836C25.643 28.0507 25.0064 27.4141 24.2211 27.4141Z" fill="#FF641A"/>
<path d="M33.108 28.2003L30.2121 22.4085V15.129C30.2121 12.4739 29.3668 9.95435 27.7674 7.84283C26.4307 6.07815 24.6078 4.69948 22.5597 3.88823C22.2746 1.69746 20.3964 0 18.1292 0C15.8618 0 13.9836 1.69737 13.6986 3.88823C11.6505 4.69948 9.82748 6.07815 8.4909 7.84283C6.89154 9.95435 6.04617 12.4739 6.04617 15.129V22.4085L3.15014 28.2003C2.92975 28.641 2.95326 29.1645 3.21233 29.5837C3.4714 30.003 3.92915 30.258 4.42189 30.258H31.8362C32.329 30.258 32.7866 30.003 33.0458 29.5837C33.3049 29.1645 33.3284 28.641 33.108 28.2003Z" fill="#FFD400"/>
<path d="M33.1079 28.2003L30.212 22.4085V15.129C30.212 12.4739 29.3667 9.95435 27.7673 7.84283C26.4306 6.07815 24.6077 4.69948 22.5595 3.88823C22.2745 1.69746 20.3963 0 18.1291 0C18.129 0 18.129 0 18.1289 0V30.258H31.8362C32.329 30.258 32.7866 30.003 33.0458 29.5837C33.3048 29.1645 33.3283 28.641 33.1079 28.2003Z" fill="#FF9F04"/>
</g>
<defs>
<clipPath id="clip0_95_560">
<rect width="36.3525" height="36.3525" fill="white"/>
</clipPath>
</defs>
</svg>
