<svg width="148" height="148" viewBox="0 0 148 148" fill="none" xmlns="http://www.w3.org/2000/svg">
<g clip-path="url(#clip0_143_628)">
<path d="M13.0372 103.199C12.4156 104.277 13.7722 105.166 14.7435 104.317L27.575 93.1015C27.9827 92.745 28.1048 92.2043 27.8693 91.7976L24.6786 86.288C24.2739 85.5891 23.1264 85.6954 22.678 86.4733L13.0372 103.199Z" fill="#E3DAD0"/>
<path d="M18.0469 111.85C16.7994 111.847 16.7052 110.231 17.9284 109.817L34.0871 104.346C34.6006 104.173 35.1313 104.338 35.3668 104.744L38.5575 110.254C38.9622 110.953 38.2962 111.89 37.3962 111.889L18.0469 111.85Z" fill="#B9AF99"/>
<path d="M10.3298 109.391C9.40561 110.202 10.1474 111.483 11.3146 111.091L33.2318 103.73C33.9423 103.492 34.3104 102.725 33.9848 102.163L29.4205 94.2815C29.0948 93.7191 28.2452 93.6538 27.6827 94.148L10.3298 109.391Z" fill="#E2DCCF"/>
<path d="M10.2631 109.453C9.41267 110.26 10.1107 111.465 11.2369 111.134L15.4455 109.704C16.1829 109.487 16.5647 108.899 16.2299 108.321L15.6653 107.391L15.2036 106.549C14.8687 105.971 14.41 105.767 13.8531 106.296L10.2631 109.453Z" fill="black"/>
<path d="M101.211 35.1832C102 34.6678 103.061 34.9194 103.532 35.7335L108.445 44.2161C108.898 44.9986 108.629 45.9993 107.844 46.4511L31.0947 90.6276C30.3098 91.0794 29.3061 90.8113 28.8529 90.0287L26.4533 85.8851C26.0181 85.1337 26.247 84.1743 26.9748 83.6986L101.211 35.1832Z" fill="#FFC107"/>
<path d="M128.958 50.1874C129.743 49.7356 130.747 50.0037 131.2 50.7863L136.12 59.2817C136.588 60.091 136.283 61.1266 135.45 61.5544L41.961 109.548C41.1824 109.948 40.2262 109.668 39.7884 108.912L37.3954 104.78C36.9422 103.997 37.2112 102.997 37.9961 102.545L128.958 50.1874Z" fill="#6F42C1"/>
<path d="M133.316 33.171C134.101 32.7192 135.105 32.9873 135.558 33.7699L139.618 40.7806C140.071 41.5632 139.803 42.5639 139.018 43.0157L37.3961 101.509C36.6111 101.96 35.6074 101.692 35.1542 100.91L31.0942 93.8989C30.641 93.1164 30.91 92.1157 31.6949 91.6639L133.316 33.171Z" fill="#17A2B8"/>
</g>
<defs>
<clipPath id="clip0_143_628">
<rect width="147.6" height="147.6" fill="white"/>
</clipPath>
</defs>
</svg>
