<svg width="28" height="28" viewBox="0 0 28 28" fill="none" xmlns="http://www.w3.org/2000/svg">
<g clip-path="url(#clip0_24_376)">
<path d="M9.66782 15.2252C9.59873 15.2252 9.52869 15.2177 9.45843 15.2021C4.95126 14.2005 3.02316 11.3343 2.19933 9.10613C1.32225 6.73394 1.4997 4.60376 1.5077 4.51426C1.55189 4.01863 1.96719 3.63867 2.46484 3.63867H7.21796C7.79216 3.63867 8.25597 4.10909 8.20784 4.68132C8.16637 5.17381 7.75352 5.56059 7.25032 5.56059H3.8325C3.60787 5.56059 3.43249 5.75366 3.45339 5.97733C3.51789 6.66902 3.67231 7.56918 4.02541 8.50208C4.99167 11.0551 6.95991 12.6781 9.87544 13.326C10.3935 13.4411 10.7202 13.9545 10.605 14.4725C10.5055 14.9203 10.1083 15.2251 9.66782 15.2252Z" fill="#FE9738"/>
<path d="M17.6244 15.2252C17.6935 15.2252 17.7635 15.2177 17.8338 15.2021C22.3409 14.2005 24.269 11.3343 25.0929 9.10613C25.9699 6.73394 25.7925 4.60376 25.7845 4.51426C25.7403 4.01863 25.325 3.63867 24.8273 3.63867H20.0742C19.5 3.63867 19.0362 4.10909 19.0843 4.68132C19.1258 5.17381 19.5387 5.56059 20.0419 5.56059H23.4597C23.6843 5.56059 23.8597 5.75366 23.8388 5.97733C23.7743 6.66902 23.6199 7.56918 23.2668 8.50208C22.3005 11.0551 20.3323 12.6781 17.4167 13.326C16.8987 13.4411 16.572 13.9545 16.6872 14.4725C16.7867 14.9203 17.1839 15.2251 17.6244 15.2252Z" fill="#FE9738"/>
<path d="M15.538 17.0374L16.1888 15.9629H11.103L11.7539 17.0374C12.2082 17.7873 12.4525 18.6869 12.4525 19.6097C12.4525 20.1734 12.3613 20.7319 12.1838 21.255L11.7778 22.4515H15.5141L15.1081 21.255C14.9306 20.7319 14.8393 20.1734 14.8393 19.6097C14.8394 18.6869 15.0837 17.7873 15.538 17.0374Z" fill="#FE9738"/>
<path d="M15.0186 18.2588C14.9009 18.6928 14.8398 19.1484 14.8398 19.6098C14.8398 20.1737 14.9306 20.7318 15.1083 21.255L15.5144 22.4516H14.3294L13.9233 21.255C13.7463 20.7319 13.6548 20.1738 13.6548 19.6098C13.6548 19.1484 13.716 18.6929 13.8336 18.2588C13.9519 17.8248 14.1261 17.4129 14.3533 17.0377L15.0046 15.9629H16.189L15.5383 17.0377C15.311 17.4129 15.1363 17.8248 15.0186 18.2588Z" fill="#FE860A"/>
<path d="M13.646 16.7261C9.65974 16.7261 6.42822 13.4945 6.42822 9.50833V1.89453H20.8637V9.50833C20.8637 13.4946 17.6323 16.7261 13.646 16.7261Z" fill="#FAC600"/>
<path d="M20.8633 2.29102V9.50912C20.8633 13.4951 17.6318 16.7266 13.6457 16.7266C13.4403 16.7266 13.2367 16.7179 13.0356 16.7014C16.7367 16.3917 19.6437 13.2897 19.6437 9.50907V2.29102H20.8633Z" fill="#E8B800"/>
<path d="M21.3449 2.29084H5.94735C5.66685 2.29084 5.43945 2.06344 5.43945 1.78295V0.507892C5.43945 0.2274 5.66685 0 5.94735 0H21.3448C21.6253 0 21.8527 0.2274 21.8527 0.507892V1.78295C21.8528 2.06344 21.6254 2.29084 21.3449 2.29084Z" fill="#FE9738"/>
<path d="M21.8526 0.507945V1.78301C21.8526 2.0636 21.6253 2.29095 21.3447 2.29095H20.1772C20.4578 2.29095 20.6852 2.0636 20.6852 1.78301V0.507945C20.6852 0.22788 20.4578 0 20.1772 0H21.3447C21.6253 0 21.8526 0.22788 21.8526 0.507945Z" fill="#FE860A"/>
<path d="M14.1566 6.44162L14.6847 7.51172C14.7677 7.67984 14.9281 7.79642 15.1137 7.82339L16.2946 7.99498C16.7619 8.06289 16.9485 8.63715 16.6104 8.96674L15.7558 9.79974C15.6216 9.9306 15.5603 10.1192 15.592 10.304L15.7937 11.4802C15.8735 11.9456 15.385 12.3005 14.9671 12.0808L13.9108 11.5254C13.7448 11.4382 13.5465 11.4382 13.3805 11.5254L12.3243 12.0808C11.9063 12.3005 11.4178 11.9456 11.4977 11.4802L11.6994 10.304C11.7311 10.1192 11.6698 9.9306 11.5355 9.79974L10.681 8.96674C10.3428 8.63715 10.5294 8.06289 10.9967 7.99498L12.1777 7.82339C12.3632 7.79642 12.5236 7.6799 12.6066 7.51172L13.1348 6.44162C13.3438 6.01816 13.9476 6.01816 14.1566 6.44162Z" fill="#F9F7F8"/>
<path d="M15.756 9.79958C15.6214 9.93029 15.5605 10.1191 15.5918 10.3037L15.7939 11.4799C15.8735 11.9455 15.3853 12.3002 14.9669 12.0806L14.5326 11.8522C14.6259 11.7171 14.671 11.5453 14.6391 11.3585L14.4007 9.96872C14.3634 9.7507 14.4359 9.52778 14.5946 9.37293L15.6044 8.38892C15.7406 8.25603 15.8048 8.08907 15.8081 7.92383L16.2946 7.99467C16.7619 8.06274 16.9486 8.63716 16.6104 8.96658L15.756 9.79958Z" fill="#EFEDEF"/>
<path d="M18.0303 25.5619H9.26172V23.3725C9.26172 22.6156 9.87537 22.002 10.6323 22.002H16.6597C17.4166 22.002 18.0303 22.6156 18.0303 23.3725V25.5619H18.0303Z" fill="#9C9C9C"/>
<path d="M18.0298 23.3725V24.647H16.9497V23.3725C16.9497 22.6159 16.3358 22.002 15.5791 22.002H16.6592C17.4164 22.002 18.0298 22.6159 18.0298 23.3725Z" fill="#838383"/>
<path d="M19.9408 27.2916H7.35088C7.15467 27.2916 6.99561 27.1325 6.99561 26.9363V25.0018C6.99561 24.8055 7.15467 24.6465 7.35088 24.6465H19.9408C20.137 24.6465 20.2961 24.8055 20.2961 25.0018V26.9363C20.2961 27.1325 20.137 27.2916 19.9408 27.2916Z" fill="#5A5A5A"/>
<path d="M20.2963 25.0018V26.9363C20.2963 27.1329 20.1371 27.2916 19.941 27.2916H18.8428C19.0388 27.2916 19.1981 27.1329 19.1981 26.9363V25.0018C19.1981 24.8057 19.0388 24.6465 18.8428 24.6465H19.941C20.1371 24.6465 20.2963 24.8057 20.2963 25.0018Z" fill="#444444"/>
</g>
<defs>
<clipPath id="clip0_24_376">
<rect width="27.2923" height="27.2923" fill="white"/>
</clipPath>
</defs>
</svg>
