<svg width="28" height="28" viewBox="0 0 28 28" fill="none" xmlns="http://www.w3.org/2000/svg">
<g clip-path="url(#clip0_24_359)">
<path d="M15.8024 2.18262H6.49199C5.63857 2.18262 4.94678 2.87441 4.94678 3.72783V23.7869C4.94678 24.6404 5.63857 25.3322 6.49199 25.3322H22.7516C23.605 25.3322 24.2968 24.6404 24.2968 23.7869V10.6771" fill="#DEDBEE"/>
<path d="M7.12988 1.54521V21.6043C7.12988 22.4577 7.82168 23.1495 8.67509 23.1495H24.9347C25.7881 23.1495 26.4799 22.4577 26.4799 21.6043V8.49445L22.7147 3.53291L17.9854 0H8.67509C7.82168 0 7.12988 0.691795 7.12988 1.54521Z" fill="#EEF5F6"/>
<path d="M21.5733 1.48604C20.6218 0.534545 19.3313 6.10249e-08 17.9858 6.10249e-08H16.2656C18.3761 -0.000373075 20.0869 1.71046 20.0869 3.82129V5.29411C20.0869 5.90078 20.5787 6.39257 21.1854 6.39257H22.6583C24.7691 6.39257 26.4799 8.1034 26.4796 10.2139V8.49445C26.4796 7.14839 25.9449 5.85749 24.993 4.90568L23.2834 3.19607L21.5733 1.48604Z" fill="#DEDBEE"/>
<path d="M21.0532 8.81293H12.5564C12.3289 8.81293 12.1445 8.62855 12.1445 8.40109C12.1445 8.17364 12.3289 7.98926 12.5564 7.98926H21.0532C21.2807 7.98926 21.465 8.17364 21.465 8.40109C21.4651 8.62849 21.2807 8.81293 21.0532 8.81293Z" fill="#025F80"/>
<path d="M23.3969 11.0639H10.2126C9.98511 11.0639 9.80078 10.8795 9.80078 10.6521C9.80078 10.4246 9.98516 10.2402 10.2126 10.2402H23.3969C23.6244 10.2402 23.8087 10.4246 23.8087 10.6521C23.8087 10.8795 23.6244 11.0639 23.3969 11.0639Z" fill="#017297"/>
<path d="M23.3967 12.8305H10.2126C9.98511 12.8305 9.80078 12.6461 9.80078 12.4187C9.80078 12.1912 9.98516 12.0068 10.2126 12.0068H23.3967C23.6242 12.0068 23.8085 12.1912 23.8085 12.4187C23.8085 12.6461 23.6242 12.8305 23.3967 12.8305Z" fill="#017297"/>
<path d="M23.3967 14.5971H10.2126C9.98511 14.5971 9.80078 14.4127 9.80078 14.1853C9.80078 13.9578 9.98516 13.7734 10.2126 13.7734H23.3967C23.6242 13.7734 23.8085 13.9578 23.8085 14.1853C23.8085 14.4127 23.6242 14.5971 23.3967 14.5971Z" fill="#017297"/>
<path d="M13.5058 16.3637H10.2126C9.98511 16.3637 9.80078 16.1793 9.80078 15.9519C9.80078 15.7244 9.98516 15.54 10.2126 15.54H13.5058C13.7333 15.54 13.9176 15.7244 13.9176 15.9519C13.9176 16.1793 13.7333 16.3637 13.5058 16.3637Z" fill="#017297"/>
<path d="M6.48209 27.2923C9.61358 27.2923 12.1522 24.7537 12.1522 21.6222C12.1522 18.4907 9.61358 15.9521 6.48209 15.9521C3.35059 15.9521 0.812012 18.4907 0.812012 21.6222C0.812012 24.7537 3.35059 27.2923 6.48209 27.2923Z" fill="#9BE69D"/>
<path d="M7.62639 27.1756C7.25714 27.252 6.87425 27.2917 6.48177 27.2917C3.3503 27.2917 0.812012 24.7533 0.812012 21.6219C0.812012 18.4904 3.35035 15.9521 6.48177 15.9521C6.8742 15.9521 7.25714 15.9918 7.62639 16.0682C5.043 16.5971 3.10051 18.8823 3.10051 21.622C3.10056 24.3616 5.043 26.6467 7.62639 27.1756Z" fill="#6FD7A3"/>
<path d="M6.48207 25.6096C8.68427 25.6096 10.4695 23.8244 10.4695 21.6222C10.4695 19.42 8.68427 17.6348 6.48207 17.6348C4.27987 17.6348 2.49463 19.42 2.49463 21.6222C2.49463 23.8244 4.27987 25.6096 6.48207 25.6096Z" fill="#EEF5F6"/>
<path d="M7.3446 25.5155C7.06672 25.577 6.77791 25.6094 6.48191 25.6094C4.27987 25.6094 2.49463 23.8241 2.49463 21.6221C2.49463 19.4201 4.27987 17.6348 6.48191 17.6348C6.77791 17.6348 7.06672 17.6672 7.3446 17.7287C5.55717 18.1224 4.21943 19.716 4.21943 21.6221C4.21948 23.5281 5.55717 25.1217 7.3446 25.5155Z" fill="#DEDBEE"/>
<path d="M8.40609 22.0329H6.48215C6.25464 22.0329 6.07031 21.8486 6.07031 21.6211V19.2155C6.07031 18.9881 6.2547 18.8037 6.48215 18.8037C6.70966 18.8037 6.89398 18.9881 6.89398 19.2155V21.2092H8.40604C8.63355 21.2092 8.81788 21.3936 8.81788 21.6211C8.81798 21.8486 8.6336 22.0329 8.40609 22.0329Z" fill="#025F80"/>
</g>
<defs>
<clipPath id="clip0_24_359">
<rect width="27.2923" height="27.2923" fill="white"/>
</clipPath>
</defs>
</svg>
