<svg width="28" height="28" viewBox="0 0 28 28" fill="none" xmlns="http://www.w3.org/2000/svg">
<g clip-path="url(#clip0_24_323)">
<path d="M13.7398 20.0971L23.3692 13.3108L10.0703 10.8906L0.289551 17.2984L13.7398 20.0971Z" fill="#F4D177"/>
<path d="M13.5522 13.3596L3.92285 7.26209L17.2226 5.08691L26.9423 10.7682L13.5522 13.3596Z" fill="#FF6666"/>
<path d="M10.1282 8.09647L2.24414 3.1047L13.1331 1.32324L21.1246 5.90882L10.1282 8.09647Z" fill="#02A9F4"/>
<path d="M14.461 20.5203C14.3278 20.3096 14.1455 20.1625 13.9443 20.1247L0.439941 17.7045C0.439941 17.7045 1.01857 19.3777 0.99794 20.491C0.982428 21.3929 0.447671 23.0996 0.447671 23.0996L13.9512 25.5198C14.1524 25.5576 14.3346 25.4759 14.4671 25.3143C14.5995 25.1527 14.682 24.9119 14.6812 24.6317L14.6769 21.2803C14.6769 21 14.5943 20.7291 14.461 20.5203ZM26.852 11.2098L13.3484 13.3842C13.1464 13.4186 12.9642 13.5501 12.8309 13.7401C12.6976 13.9293 12.6151 14.1709 12.6151 14.4228L12.6117 17.4354C12.6108 17.6882 12.6925 17.904 12.8249 18.0476C12.9573 18.1937 13.1396 18.2668 13.3408 18.2333L26.8451 16.058C26.8451 16.058 26.4574 15.0968 26.3473 13.5725C26.2751 12.5743 26.852 11.2098 26.852 11.2098ZM9.95497 12.0868L21.0099 10.3045C21.0099 10.3045 20.5241 9.4877 20.4777 8.35283C20.4407 7.45442 21.0159 6.33496 21.0159 6.33496L9.96014 8.11637C9.79591 8.14393 9.64628 8.25224 9.53711 8.40699C9.42789 8.56088 9.36083 8.75864 9.36083 8.96579L9.35742 11.4316C9.35651 11.6371 9.42363 11.8151 9.53194 11.9337C9.64031 12.0524 9.78989 12.1117 9.95497 12.0868Z" fill="#FFF3E4"/>
<path d="M17.3936 17.5225L14.2285 19.7532C14.1616 19.7257 14.0927 19.7048 14.0221 19.6915L0.517723 17.2712C0.28302 17.2281 0.0500232 17.3877 0.00700589 17.6267C-0.0359581 17.8661 0.123105 18.0948 0.362978 18.1378L13.8631 20.5573C13.9189 20.568 14.0066 20.6251 14.09 20.7572C14.1837 20.9033 14.237 21.0937 14.237 21.2807L14.2414 24.6329C14.2422 24.7967 14.1992 24.9472 14.127 25.0353C14.0754 25.0968 14.0462 25.0886 14.0289 25.0864L0.525452 22.6662C0.291602 22.6228 0.0577524 22.7828 0.0147351 23.0218C-0.0282822 23.2612 0.130834 23.4898 0.370707 23.5329L13.8699 25.9522C13.931 25.9639 13.9911 25.9695 14.0505 25.9695C14.2875 25.9695 14.5116 25.8799 14.6952 25.7122L23.8785 19.1515C24.1416 18.965 24.317 18.5858 24.3161 18.119L24.314 16.4658L17.3936 17.5225Z" fill="#FBAC0F"/>
<path d="M26.7758 15.6236L13.2689 17.7992C13.2371 17.8056 13.1984 17.8047 13.1485 17.7493C13.0883 17.6831 13.0514 17.5665 13.0522 17.4359L13.0556 14.4228C13.0556 14.2724 13.1047 14.1159 13.1915 13.993C13.2603 13.8954 13.3445 13.8313 13.4185 13.8189L26.922 11.6445C27.1628 11.6058 27.3252 11.3801 27.2866 11.1398C27.2479 10.8999 27.0174 10.7336 26.7828 10.7752C26.7828 10.7752 15.9843 12.5316 13.0237 13.0252L11.2198 11.883L9.51492 12.1539L8.84259 10.3777L3.92321 7.2627C3.49933 7.38732 2.9998 7.95652 2.98088 8.59788L2.97656 11.6337C2.97656 12.0524 3.15108 12.3929 3.41414 12.5605L12.6723 18.4973C12.6687 18.495 12.6661 18.4927 12.6627 18.4904C12.8338 18.6155 13.0347 18.6817 13.2439 18.6817C13.2989 18.6817 13.3548 18.6773 13.4107 18.6679L26.9151 16.4926C27.1558 16.4539 27.3183 16.2283 27.2796 15.988C27.2418 15.7478 27.0088 15.5848 26.7758 15.6236Z" fill="#E63431"/>
<path d="M20.9403 9.86956L9.85706 11.6368C9.82779 11.605 9.79773 11.5349 9.79773 11.4317L9.80114 8.96545C9.80114 8.85714 9.83558 8.74669 9.89661 8.66023C9.94821 8.58714 10.0024 8.55532 10.0299 8.55058L21.0856 6.76917C21.3264 6.73047 21.4888 6.50435 21.4502 6.26448C21.4114 6.02418 21.1803 5.86037 20.9464 5.89992C20.9464 5.89992 9.70178 7.72861 9.61495 7.77142L2.2438 3.10449C1.89731 3.20593 1.48809 3.67198 1.47258 4.1964L1.44678 6.79332C1.44678 7.1381 1.58953 7.41662 1.80531 7.5542C1.80531 7.5542 9.3014 12.3845 9.61639 12.4916C9.78963 12.5505 9.97657 12.5284 10.0247 12.5211L21.0796 10.7388C21.3204 10.7001 21.4828 10.4739 21.4442 10.2341C21.4054 9.99376 21.175 9.83001 20.9403 9.86956Z" fill="#006AB3"/>
</g>
<defs>
<clipPath id="clip0_24_323">
<rect width="27.2923" height="27.2923" fill="white"/>
</clipPath>
</defs>
</svg>
