<svg width="128" height="35" viewBox="0 0 128 35" fill="none" xmlns="http://www.w3.org/2000/svg">
<path d="M2.43681 33.7661V7.936L0 1.86614H12.76C15.4183 1.86614 17.6188 2.23535 19.3615 2.97378C21.1042 3.68267 22.4038 4.89369 23.2604 6.60683C24.117 8.31998 24.5453 10.6534 24.5453 13.6071C24.5453 17.6832 23.5706 20.6222 21.6211 22.4239C19.6717 24.2257 16.718 25.1266 12.76 25.1266H11.0764V33.7661H2.43681ZM11.0764 18.7909C12.4942 18.7909 13.5427 18.4069 14.2221 17.6389C14.931 16.871 15.2854 15.4975 15.2854 13.5185C15.2854 12.0121 15.1525 10.8749 14.8867 10.107C14.6504 9.33901 14.2221 8.82211 13.6018 8.55628C13.0111 8.26091 12.1693 8.11322 11.0764 8.11322V18.7909Z" fill="white"/>
<path d="M26.997 33.7661V8.29044H33.7757L34.6618 11.8349H34.7504C35.223 10.358 36.0501 9.27994 37.2316 8.60059C38.4426 7.92123 39.9637 7.74401 41.795 8.06892V15.6009C40.6431 15.6009 39.4468 15.6747 38.2063 15.8224C36.9953 15.9701 35.9172 16.1768 34.972 16.4427V33.7661H26.997Z" fill="white"/>
<path d="M44.2173 8.29044H52.1923V33.7661H44.2173V8.29044ZM43.9958 0.315445H52.4138V6.341H43.9958V0.315445Z" fill="white"/>
<path d="M63.9229 26.3228C63.9229 25.8207 63.5537 25.3333 62.8152 24.8607L59.005 22.3796C57.6167 21.464 56.6125 20.4745 55.9922 19.4111C55.3719 18.3478 55.0618 16.9596 55.0618 15.2464C55.0618 12.7948 55.7854 10.9783 57.2327 9.79683C58.6801 8.58581 61.0578 7.96554 64.3659 7.936C65.6065 7.936 66.7437 7.99507 67.7775 8.11322C68.8408 8.20183 69.6826 8.30521 70.3029 8.42336C70.9527 8.54151 71.2776 8.60059 71.2776 8.60059L70.613 14.4932C70.613 14.4932 70.3915 14.4637 69.9484 14.4046C69.5054 14.3455 68.9294 14.2865 68.2205 14.2274C67.5412 14.1388 66.8323 14.0945 66.0938 14.0945C65.0305 14.0945 64.2626 14.1831 63.79 14.3603C63.3174 14.5375 63.0811 14.8772 63.0811 15.3793C63.0811 15.6747 63.1697 15.9258 63.3469 16.1325C63.5241 16.3098 63.8047 16.5165 64.1887 16.7528L68.0876 19.2782C69.5054 20.1939 70.5244 21.1834 71.1447 22.2467C71.765 23.2805 72.0751 24.6244 72.0751 26.2785C72.0751 28.9073 71.3219 30.8863 69.8155 32.2155C68.3091 33.5151 65.8428 34.1797 62.4165 34.2092C60.9101 34.2092 59.5219 34.1206 58.2518 33.9434C57.0112 33.7957 55.874 33.5889 54.8402 33.3231L55.5048 27.2975C55.5048 27.2975 56.0513 27.3861 57.1441 27.5634C58.237 27.7111 59.6843 27.7849 61.4861 27.7849C63.1106 27.7849 63.9229 27.2975 63.9229 26.3228Z" fill="white"/>
<path d="M86.1515 16.8414C86.1515 15.0397 85.4721 14.1388 84.1134 14.1388C83.5817 14.1388 83.1092 14.3012 82.6956 14.6261V33.7661H74.7206V8.29044H81.4994L82.0753 10.0184C83.7294 8.63012 85.5312 7.936 87.4806 7.936C88.603 7.936 89.6221 8.15753 90.5377 8.60059C91.4534 9.04364 92.2066 9.70823 92.7973 10.5943C93.7425 9.67869 94.732 9.0141 95.7658 8.60059C96.8291 8.15753 97.8924 7.936 98.9558 7.936C100.876 7.936 102.456 8.57105 103.696 9.84114C104.937 11.1112 105.557 13.0164 105.557 15.5566V33.7661H97.5823V16.8414C97.5823 15.0397 96.9029 14.1388 95.5442 14.1388C94.9535 14.1388 94.4661 14.2865 94.0822 14.5818C94.0822 14.7295 94.0822 14.892 94.0822 15.0692C94.1117 15.2464 94.1265 15.4089 94.1265 15.5566V33.7661H86.1515V16.8414Z" fill="white"/>
<path d="M114.839 34.2092C113.657 34.2092 112.549 33.9138 111.516 33.3231C110.482 32.7028 109.64 31.8167 108.99 30.6648C108.34 29.5128 108.016 28.1246 108.016 26.5C108.016 23.9598 108.902 22.0399 110.674 20.7403C112.476 19.4407 114.794 18.7909 117.63 18.7909H119.535V16.3541C119.535 15.4975 119.24 14.9215 118.649 14.6261C118.058 14.3012 117.305 14.1388 116.389 14.1388C115.267 14.1388 114.189 14.2422 113.155 14.4489C112.121 14.6557 111.087 14.951 110.054 15.335V9.13225C111.383 8.83688 112.756 8.57105 114.174 8.33475C115.621 8.06892 117.069 7.936 118.516 7.936C120.141 7.936 121.632 8.14276 122.991 8.55628C124.35 8.94026 125.442 9.64914 126.269 10.6829C127.096 11.7167 127.51 13.1936 127.51 15.1135V33.7661H120.598L120.067 31.861C119.328 32.6585 118.501 33.2493 117.586 33.6332C116.67 34.0172 115.754 34.2092 114.839 34.2092ZM117.94 28.3609C118.531 28.3609 119.062 28.095 119.535 27.5634V23.1771H118.959C118.073 23.1771 117.32 23.3986 116.699 23.8417C116.079 24.2552 115.769 24.8903 115.769 25.7468C115.769 26.5739 115.991 27.2237 116.434 27.6963C116.877 28.1393 117.379 28.3609 117.94 28.3609Z" fill="white"/>
<path d="M43.7228 0H52.4496V6.37732H43.7228V0Z" fill="white"/>
</svg>
