<svg width="145" height="145" viewBox="0 0 145 145" fill="none" xmlns="http://www.w3.org/2000/svg">
<path d="M55.7636 72.6656C55.3463 73.3895 56.2569 73.9864 56.909 73.4165L65.5227 65.8872C65.7965 65.648 65.8784 65.285 65.7203 65.012L63.5784 61.3134C63.3067 60.8442 62.5364 60.9156 62.2354 61.4378L55.7636 72.6656Z" fill="#E3DAD0"/>
<path d="M59.1266 78.4728C58.2891 78.4711 58.2259 77.3864 59.047 77.1084L69.8943 73.436C70.239 73.3193 70.5953 73.43 70.7534 73.703L72.8953 77.4016C73.167 77.8708 72.7198 78.5002 72.1157 78.499L59.1266 78.4728Z" fill="#B9AF99"/>
<path d="M53.9461 76.8221C53.3257 77.3671 53.8236 78.2269 54.6072 77.9637L69.3201 73.0223C69.7971 72.8621 70.0442 72.3478 69.8256 71.9703L66.7616 66.6794C66.543 66.3019 65.9726 66.2581 65.595 66.5898L53.9461 76.8221Z" fill="#E2DCCF"/>
<path d="M53.9013 76.8639C53.3304 77.4056 53.799 78.2148 54.555 77.9927L57.3803 77.0324C57.8753 76.887 58.1316 76.4922 57.9068 76.104L57.5278 75.4797L57.2178 74.9143C56.9931 74.5262 56.6851 74.3898 56.3113 74.7445L53.9013 76.8639Z" fill="black"/>
<path d="M114.954 27.0069C115.484 26.661 116.196 26.8298 116.513 27.3763L119.81 33.0706C120.114 33.596 119.934 34.2677 119.407 34.571L67.8855 64.2265C67.3586 64.5298 66.6848 64.3498 66.3806 63.8245L64.7697 61.0429C64.4776 60.5385 64.6312 59.8945 65.1198 59.5751L114.954 27.0069Z" fill="#FFC107"/>
<path d="M133.581 37.0792C134.108 36.7759 134.781 36.9559 135.086 37.4812L138.388 43.1841C138.703 43.7274 138.498 44.4226 137.939 44.7098L75.18 76.928C74.6573 77.1963 74.0155 77.0082 73.7215 76.5007L72.1152 73.7268C71.8109 73.2015 71.9915 72.5297 72.5184 72.2264L133.581 37.0792Z" fill="#6F42C1"/>
<path d="M136.507 25.6561C137.033 25.3528 137.707 25.5328 138.011 26.0581L140.737 30.7645C141.041 31.2898 140.861 31.9615 140.334 32.2648L72.1156 71.5309C71.5887 71.8342 70.9149 71.6542 70.6106 71.1289L67.8852 66.4226C67.5809 65.8973 67.7615 65.2255 68.2884 64.9222L136.507 25.6561Z" fill="#17A2B8"/>
<path d="M6.46415 112.676V86.8455L4.02734 80.7756H16.7873C19.4457 80.7756 21.6462 81.1448 23.3889 81.8833C25.1316 82.5921 26.4312 83.8032 27.2878 85.5163C28.1443 87.2295 28.5726 89.5629 28.5726 92.5166C28.5726 96.5927 27.5979 99.5316 25.6485 101.333C23.699 103.135 20.7453 104.036 16.7873 104.036H15.1037V112.676H6.46415ZM15.1037 97.7003C16.5215 97.7003 17.5701 97.3164 18.2494 96.5484C18.9583 95.7804 19.3128 94.407 19.3128 92.428C19.3128 90.9216 19.1798 89.7844 18.914 89.0164C18.6777 88.2485 18.2494 87.7316 17.6292 87.4658C17.0384 87.1704 16.1966 87.0227 15.1037 87.0227V97.7003Z" fill="url(#paint0_linear_24_122)"/>
<path d="M31.0243 112.676V87.1999H37.8031L38.6892 90.7444H38.7778C39.2504 89.2675 40.0774 88.1894 41.2589 87.5101C42.4699 86.8307 43.9911 86.6535 45.8224 86.9784V94.5103C44.6704 94.5103 43.4742 94.5842 42.2336 94.7319C41.0226 94.8795 39.9445 95.0863 38.9993 95.3521V112.676H31.0243Z" fill="url(#paint1_linear_24_122)"/>
<path d="M48.2446 87.1999H56.2196V112.676H48.2446V87.1999ZM48.0231 79.2249H56.4412V85.2505H48.0231V79.2249Z" fill="url(#paint2_linear_24_122)"/>
<path d="M67.9502 105.232C67.9502 104.73 67.581 104.243 66.8426 103.77L63.0323 101.289C61.6441 100.373 60.6398 99.3839 60.0195 98.3206C59.3993 97.2573 59.0891 95.869 59.0891 94.1559C59.0891 91.7043 59.8128 89.8878 61.2601 88.7063C62.7074 87.4953 65.0851 86.875 68.3933 86.8455C69.6338 86.8455 70.771 86.9045 71.8048 87.0227C72.8681 87.1113 73.7099 87.2147 74.3302 87.3328C74.98 87.451 75.3049 87.5101 75.3049 87.5101L74.6404 93.4027C74.6404 93.4027 74.4188 93.3732 73.9758 93.3141C73.5327 93.255 72.9567 93.1959 72.2479 93.1369C71.5685 93.0483 70.8596 93.0039 70.1212 93.0039C69.0579 93.0039 68.2899 93.0926 67.8173 93.2698C67.3447 93.447 67.1084 93.7867 67.1084 94.2888C67.1084 94.5842 67.197 94.8352 67.3743 95.042C67.5515 95.2192 67.8321 95.426 68.2161 95.6623L72.1149 98.1877C73.5327 99.1033 74.5518 100.093 75.172 101.156C75.7923 102.19 76.1024 103.534 76.1024 105.188C76.1024 107.817 75.3493 109.796 73.8429 111.125C72.3365 112.425 69.8701 113.089 66.4438 113.119C64.9374 113.119 63.5492 113.03 62.2791 112.853C61.0386 112.705 59.9014 112.498 58.8676 112.233L59.5322 106.207C59.5322 106.207 60.0786 106.296 61.1715 106.473C62.2643 106.621 63.7117 106.694 65.5134 106.694C67.138 106.694 67.9502 106.207 67.9502 105.232Z" fill="url(#paint3_linear_24_122)"/>
<path d="M90.1788 95.7509C90.1788 93.9491 89.4995 93.0483 88.1408 93.0483C87.6091 93.0483 87.1365 93.2107 86.723 93.5356V112.676H78.748V87.1999H85.5267L86.1027 88.9278C87.7568 87.5396 89.5585 86.8455 91.508 86.8455C92.6304 86.8455 93.6494 87.067 94.565 87.5101C95.4807 87.9531 96.2339 88.6177 96.8246 89.5038C97.7698 88.5882 98.7593 87.9236 99.7931 87.5101C100.856 87.067 101.92 86.8455 102.983 86.8455C104.903 86.8455 106.483 87.4805 107.724 88.7506C108.964 90.0207 109.585 91.9258 109.585 94.466V112.676H101.61V95.7509C101.61 93.9491 100.93 93.0483 99.5716 93.0483C98.9808 93.0483 98.4935 93.1959 98.1095 93.4913C98.1095 93.639 98.1095 93.8015 98.1095 93.9787C98.139 94.1559 98.1538 94.3183 98.1538 94.466V112.676H90.1788V95.7509Z" fill="url(#paint4_linear_24_122)"/>
<path d="M118.866 113.119C117.684 113.119 116.577 112.823 115.543 112.233C114.509 111.612 113.667 110.726 113.018 109.574C112.368 108.422 112.043 107.034 112.043 105.41C112.043 102.869 112.929 100.949 114.701 99.6498C116.503 98.3502 118.822 97.7003 121.657 97.7003H123.562V95.2635C123.562 94.407 123.267 93.831 122.676 93.5356C122.085 93.2107 121.332 93.0483 120.417 93.0483C119.294 93.0483 118.216 93.1516 117.182 93.3584C116.149 93.5651 115.115 93.8605 114.081 94.2445V88.0417C115.41 87.7464 116.784 87.4805 118.201 87.2442C119.649 86.9784 121.096 86.8455 122.543 86.8455C124.168 86.8455 125.659 87.0522 127.018 87.4658C128.377 87.8497 129.47 88.5586 130.297 89.5924C131.124 90.6262 131.537 92.1031 131.537 94.023V112.676H124.626L124.094 110.77C123.356 111.568 122.529 112.159 121.613 112.543C120.697 112.927 119.782 113.119 118.866 113.119ZM121.967 107.27C122.558 107.27 123.09 107.005 123.562 106.473V102.087H122.986C122.1 102.087 121.347 102.308 120.727 102.751C120.107 103.165 119.796 103.8 119.796 104.656C119.796 105.483 120.018 106.133 120.461 106.606C120.904 107.049 121.406 107.27 121.967 107.27Z" fill="url(#paint5_linear_24_122)"/>
<path d="M47.7501 78.9095H56.477V85.2868H47.7501V78.9095Z" fill="#FFC107"/>
<defs>
<linearGradient id="paint0_linear_24_122" x1="72.031" y1="48.7387" x2="73.0673" y2="113.109" gradientUnits="userSpaceOnUse">
<stop offset="0.5" stop-color="#6F42C1"/>
<stop offset="1" stop-color="#17A2B8"/>
</linearGradient>
<linearGradient id="paint1_linear_24_122" x1="72.031" y1="48.7387" x2="73.0673" y2="113.109" gradientUnits="userSpaceOnUse">
<stop offset="0.5" stop-color="#6F42C1"/>
<stop offset="1" stop-color="#17A2B8"/>
</linearGradient>
<linearGradient id="paint2_linear_24_122" x1="72.031" y1="48.7387" x2="73.0673" y2="113.109" gradientUnits="userSpaceOnUse">
<stop offset="0.5" stop-color="#6F42C1"/>
<stop offset="1" stop-color="#17A2B8"/>
</linearGradient>
<linearGradient id="paint3_linear_24_122" x1="72.031" y1="48.7387" x2="73.0673" y2="113.109" gradientUnits="userSpaceOnUse">
<stop offset="0.5" stop-color="#6F42C1"/>
<stop offset="1" stop-color="#17A2B8"/>
</linearGradient>
<linearGradient id="paint4_linear_24_122" x1="72.031" y1="48.7387" x2="73.0673" y2="113.109" gradientUnits="userSpaceOnUse">
<stop offset="0.5" stop-color="#6F42C1"/>
<stop offset="1" stop-color="#17A2B8"/>
</linearGradient>
<linearGradient id="paint5_linear_24_122" x1="72.031" y1="48.7387" x2="73.0673" y2="113.109" gradientUnits="userSpaceOnUse">
<stop offset="0.5" stop-color="#6F42C1"/>
<stop offset="1" stop-color="#17A2B8"/>
</linearGradient>
</defs>
</svg>
